<svg xmlns="http://www.w3.org/2000/svg">
	<svg id="dropdown_open" xmlns="http://www.w3.org/2000/svg" width="12" height="6"
		viewBox="0 0 12 6" fill="none">
		<path
			d="M10.3639 0.56009L10.3639 0.560124L6.0048 4.64248L1.63713 0.56009C1.48009 0.413303 1.22627 0.413303 1.06923 0.56009C0.910257 0.708677 0.910257 0.951548 1.06923 1.10014L5.71227 5.43991C5.79094 5.51345 5.88949 5.55 5.99622 5.55C6.09372 5.55 6.20107 5.51384 6.28017 5.43991L10.9227 1.10062C11.0909 0.952086 11.0909 0.708753 10.9318 0.56009C10.7748 0.413303 10.521 0.413303 10.3639 0.56009Z"
			fill="white" stroke="#CCCCCC" stroke-width="0.1" />
	</svg>


	<svg id="check_mark" xmlns="http://www.w3.org/2000/svg" width="20" height="20"
		viewBox="0 0 20 20" fill="none">
		<path d="M16.6668 5L7.50016 14.1667L3.3335 10" stroke="white" stroke-width="1.66667"
			stroke-linecap="round" stroke-linejoin="round" />
	</svg>

	<svg id="close_icon" xmlns="http://www.w3.org/2000/svg" width="24" height="24"
		viewBox="0 0 24 24" fill="none">
		<path
			d="M23.3855 1.14201L14.2218 10.3056L5.05821 1.14201C4.53743 0.621217 3.83109 0.328641 3.09458 0.328641C2.35807 0.328642 1.65173 0.621218 1.13094 1.14201C0.610154 1.6628 0.317578 2.36914 0.317578 3.10564C0.317578 3.84215 0.610154 4.54849 1.13094 5.06928L10.2946 14.2329L1.13094 23.3965C0.610154 23.9173 0.317578 24.6237 0.317578 25.3602C0.317578 26.0967 0.610154 26.803 1.13094 27.3238C1.65173 27.8446 2.35807 28.1372 3.09458 28.1372C3.83109 28.1372 4.53743 27.8446 5.05821 27.3238L14.2218 18.1602L23.3855 27.3238C23.9063 27.8446 24.6126 28.1372 25.3491 28.1372C26.0856 28.1372 26.792 27.8446 27.3128 27.3238C27.8335 26.803 28.1261 26.0967 28.1261 25.3602C28.1261 24.6237 27.8335 23.9173 27.3128 23.3965L18.1491 14.2329L27.3128 5.06928C27.8335 4.54849 28.1261 3.84215 28.1261 3.10564C28.1261 2.36914 27.8335 1.66279 27.3128 1.14201C26.792 0.621217 26.0856 0.328643 25.3491 0.328642C24.6126 0.328643 23.9063 0.621217 23.3855 1.14201Z"
			fill="white" />
	</svg>

	<svg id="previous_icon" xmlns="http://www.w3.org/2000/svg" width="24" height="24"
		viewBox="0 0 24 24" fill="none">
		<path fill-rule="evenodd" clip-rule="evenodd"
			d="M8.12155 10.5H21.0002V13.5H8.12155L13.0609 18.4393L10.9396 20.5606L2.37891 12L10.9396 3.43933L13.0609 5.56065L8.12155 10.5Z"
			fill="#ffffff" />
	</svg>

	<svg id="next_icon" xmlns="http://www.w3.org/2000/svg" width="24" height="24"
		viewBox="0 0 24 24" fill="none">
		<path fill-rule="evenodd" clip-rule="evenodd"
			d="M15.4775 13.557H2.92383V10.443H15.4775L10.6628 5.31595L12.7306 3.11401L21.0752 12L12.7306 20.886L10.6628 18.6841L15.4775 13.557Z"
			fill="#ffffff" />
	</svg>
</svg>